<mxfile host="app.diagrams.net" modified="2023-05-17T10:10:03.629Z" agent="Mozilla/5.0 (Windows NT 10.0; Win64; x64) AppleWebKit/537.36 (KHTML, like Gecko) Chrome/112.0.0.0 Safari/537.36 OPR/98.0.0.0" etag="1o1AHeVHTBG30Uls8_rb" version="21.3.2" type="device">
  <diagram name="Page-1" id="H9YYpDildy08gzTpNGU-">
    <mxGraphModel dx="1564" dy="826" grid="1" gridSize="10" guides="1" tooltips="1" connect="1" arrows="1" fold="1" page="1" pageScale="1" pageWidth="850" pageHeight="1100" math="0" shadow="0">
      <root>
        <mxCell id="0" />
        <mxCell id="1" parent="0" />
        <mxCell id="uAMA8YpgKCtyUHV15C1F-1" value="«block»&lt;br&gt;&lt;b&gt;CoffeeDisplay&lt;/b&gt;" style="html=1;dropTarget=0;whiteSpace=wrap;" vertex="1" parent="1">
          <mxGeometry x="340" y="220" width="180" height="90" as="geometry" />
        </mxCell>
        <mxCell id="uAMA8YpgKCtyUHV15C1F-3" value="&lt;b&gt;bdd &lt;/b&gt;CoffeeDisplay" style="shape=umlFrame;whiteSpace=wrap;html=1;pointerEvents=0;width=120;height=30;" vertex="1" parent="1">
          <mxGeometry x="180" y="180" width="480" height="690" as="geometry" />
        </mxCell>
        <mxCell id="uAMA8YpgKCtyUHV15C1F-4" value="«block»&lt;br&gt;&lt;b&gt;MCU&lt;/b&gt;" style="html=1;dropTarget=0;whiteSpace=wrap;" vertex="1" parent="1">
          <mxGeometry x="340" y="390" width="180" height="90" as="geometry" />
        </mxCell>
        <mxCell id="uAMA8YpgKCtyUHV15C1F-5" value="«block»&lt;br&gt;&lt;b&gt;TFT display&lt;/b&gt;" style="html=1;dropTarget=0;whiteSpace=wrap;" vertex="1" parent="1">
          <mxGeometry x="340" y="560" width="180" height="90" as="geometry" />
        </mxCell>
        <mxCell id="uAMA8YpgKCtyUHV15C1F-8" value="«block»&lt;br&gt;&lt;b&gt;Touchscreen&lt;/b&gt;" style="html=1;dropTarget=0;whiteSpace=wrap;" vertex="1" parent="1">
          <mxGeometry x="340" y="730" width="180" height="90" as="geometry" />
        </mxCell>
        <mxCell id="uAMA8YpgKCtyUHV15C1F-9" value="" style="endArrow=diamondThin;endFill=1;endSize=24;html=1;rounded=0;entryX=0.5;entryY=1;entryDx=0;entryDy=0;exitX=0.5;exitY=0;exitDx=0;exitDy=0;" edge="1" parent="1" source="uAMA8YpgKCtyUHV15C1F-8" target="uAMA8YpgKCtyUHV15C1F-5">
          <mxGeometry width="160" relative="1" as="geometry">
            <mxPoint x="210" y="700" as="sourcePoint" />
            <mxPoint x="370" y="700" as="targetPoint" />
          </mxGeometry>
        </mxCell>
        <mxCell id="uAMA8YpgKCtyUHV15C1F-10" value="" style="endArrow=diamondThin;endFill=1;endSize=24;html=1;rounded=0;entryX=0.5;entryY=1;entryDx=0;entryDy=0;exitX=0.5;exitY=0;exitDx=0;exitDy=0;" edge="1" parent="1" source="uAMA8YpgKCtyUHV15C1F-5" target="uAMA8YpgKCtyUHV15C1F-4">
          <mxGeometry width="160" relative="1" as="geometry">
            <mxPoint x="450" y="560" as="sourcePoint" />
            <mxPoint x="450" y="480" as="targetPoint" />
          </mxGeometry>
        </mxCell>
        <mxCell id="uAMA8YpgKCtyUHV15C1F-11" value="" style="endArrow=diamondThin;endFill=1;endSize=24;html=1;rounded=0;entryX=0.5;entryY=1;entryDx=0;entryDy=0;exitX=0.5;exitY=0;exitDx=0;exitDy=0;" edge="1" parent="1" source="uAMA8YpgKCtyUHV15C1F-4" target="uAMA8YpgKCtyUHV15C1F-1">
          <mxGeometry width="160" relative="1" as="geometry">
            <mxPoint x="450" y="750" as="sourcePoint" />
            <mxPoint x="450" y="670" as="targetPoint" />
          </mxGeometry>
        </mxCell>
      </root>
    </mxGraphModel>
  </diagram>
</mxfile>
